<svg xmlns="http://www.w3.org/2000/svg" viewBox="-1152 -997.661 7128.987 1995.323" class="h-12 w-auto" alt="Nixos Logo"><defs><linearGradient id="linear-gradient-fe8007f03960d653a0f88aaeb7699e30" x1="-320" x2="128" y1="-554.256" y2="221.703" gradientUnits="userSpaceOnUse"><stop offset="0%" stop-color="#43609e"></stop><stop offset="25%" stop-color="#4b6bb0"></stop><stop offset="100%" stop-color="#5377c3"></stop></linearGradient><linearGradient id="linear-gradient-97cf99ea51a28ee27df23cfd5a6fad51" x1="-320" x2="128" y1="-554.256" y2="221.703" gradientUnits="userSpaceOnUse"><stop offset="0%" stop-color="#739fbf"></stop><stop offset="25%" stop-color="#79add1"></stop><stop offset="100%" stop-color="#7ebae4"></stop></linearGradient></defs><path fill="url(#linear-gradient-fe8007f03960d653a0f88aaeb7699e30)" d="m-304-304.84 128-221.703 560 969.948H128L0 221.703l-128 221.702h-128l-64-110.851L-128 0z" transform="translate(-320 554.256)"></path><path fill="url(#linear-gradient-97cf99ea51a28ee27df23cfd5a6fad51)" d="m-304-304.84 128-221.703 560 969.948H128L0 221.703l-128 221.702h-128l-64-110.851L-128 0z" transform="rotate(60 -320 -554.256)"></path><path fill="url(#linear-gradient-fe8007f03960d653a0f88aaeb7699e30)" d="m-304-304.84 128-221.703 560 969.948H128L0 221.703l-128 221.702h-128l-64-110.851L-128 0z" transform="rotate(120 0 -369.504)"></path><path fill="url(#linear-gradient-97cf99ea51a28ee27df23cfd5a6fad51)" d="m-304-304.84 128-221.703 560 969.948H128L0 221.703l-128 221.702h-128l-64-110.851L-128 0z" transform="rotate(180 160 -277.128)"></path><path fill="url(#linear-gradient-fe8007f03960d653a0f88aaeb7699e30)" d="m-304-304.84 128-221.703 560 969.948H128L0 221.703l-128 221.702h-128l-64-110.851L-128 0z" transform="rotate(-120 320 -184.752)"></path><path fill="url(#linear-gradient-97cf99ea51a28ee27df23cfd5a6fad51)" d="m-304-304.84 128-221.703 560 969.948H128L0 221.703l-128 221.702h-128l-64-110.851L-128 0z" transform="rotate(-60 640 0)"></path><path d="M2403.518-665.892h155v1331h-148l-744-1055v1055h-155v-1331h148l744 1056m474.782-869v-145c-40-11-118-11-158 0v145c40 11 118 11 158 0m0 1144v-935l-158-18v953m1119.832-935-337 455 335 480h-193l-230-370-228 370h-183l334-467-318-468h194l208 361 227-361m891.878-421c333 0 611 243 611 691s-278 690-611 690-611-242-611-690 278-691 611-691m0 1245c266 0 435-221 435-554s-169-554-435-554-435 221-435 554 169 554 435 554m982.977 136c-131 0-273-34-354-113l72-115c85 56 187 84 288 84 153 0 271-66 271-206 0-122-88-194-291-313-155-90-275-185-275-374 0-216 174-344 424-344 104 0 196 20 279 69l-54 120c-65-34-160-45-237-45-156 0-243 65-243 178 0 111 79 194 208 270 239 140 365 233 365 424 0 241-203 365-453 365"></path></svg>